<?xml version="1.0" encoding="UTF-8" standalone="no"?>
<svg
   width="247.6666mm"
   height="284.08817mm"
   viewBox="0 0 247.66661 284.08816"
   version="1.1"
   id="svg8"
   inkscape:version="1.2.2 (732a01da63, 2022-12-09)"
   sodipodi:docname="icon.svg"
   xmlns:inkscape="http://www.inkscape.org/namespaces/inkscape"
   xmlns:sodipodi="http://sodipodi.sourceforge.net/DTD/sodipodi-0.dtd"
   xmlns="http://www.w3.org/2000/svg"
   xmlns:svg="http://www.w3.org/2000/svg"
   xmlns:rdf="http://www.w3.org/1999/02/22-rdf-syntax-ns#"
   xmlns:cc="http://creativecommons.org/ns#"
   xmlns:dc="http://purl.org/dc/elements/1.1/">
  <defs
     id="defs2" />
  <sodipodi:namedview
     id="base"
     pagecolor="#ffffff"
     bordercolor="#666666"
     borderopacity="1.0"
     inkscape:pageopacity="0.0"
     inkscape:pageshadow="2"
     inkscape:zoom="0.1767767"
     inkscape:cx="1538.6643"
     inkscape:cy="322.44068"
     inkscape:document-units="mm"
     inkscape:current-layer="layer1"
     inkscape:document-rotation="0"
     showgrid="false"
     inkscape:window-width="1920"
     inkscape:window-height="1029"
     inkscape:window-x="-8"
     inkscape:window-y="22"
     inkscape:window-maximized="1"
     inkscape:showpageshadow="2"
     inkscape:pagecheckerboard="0"
     inkscape:deskcolor="#d1d1d1" />
  <metadata
     id="metadata5">
    <rdf:RDF>
      <cc:Work
         rdf:about="">
        <dc:format>image/svg+xml</dc:format>
        <dc:type
           rdf:resource="http://purl.org/dc/dcmitype/StillImage" />
      </cc:Work>
    </rdf:RDF>
  </metadata>
  <g
     inkscape:label="Layer 1"
     inkscape:groupmode="layer"
     id="layer1"
     transform="translate(-65.209247,-6.5534427)">
    <g
       id="g44"
       transform="matrix(2.340378,0,0,2.340378,37.900963,1.0023799)"
       style="fill:#d40000">
      <path
         d="M 117.49165,63.064655 11.668322,2.3718659 V 123.75745 Z"
         fill="#ffffff"
         id="path32"
         style="fill:#d40000;stroke-width:2.59371" />
    </g>
    <g
       style="fill:#000000"
       id="g24"
       transform="matrix(5.6393794,-3.3248699,3.3248699,5.6393794,35.065023,120.93061)">
      <path
         d="m 13.5,5.5 c 1.1,0 2,-0.9 2,-2 0,-1.1 -0.9,-2 -2,-2 -1.1,0 -2,0.9 -2,2 0,1.1 0.9,2 2,2 z m 4,5.28 C 16.27,10.41 15.28,9.61 14.7,8.6 L 13.7,7 C 13.29,6.35 12.59,6 11.86,6 11.08,6 10.27,6.5 10.08,7.44 9.89,8.38 7,23 7,23 h 2.1 l 1.8,-8 2.1,2 v 6 h 2 v -7.5 l -2.1,-2 0.6,-3 c 1,1.15 2.41,2.01 4,2.34 V 23 H 19 V 9 H 17.5 Z M 7.43,13.13 5.31,12.72 C 4.77,12.61 4.41,12.09 4.52,11.55 L 5.28,7.62 C 5.49,6.54 6.54,5.83 7.62,6.04 l 1.16,0.23 z"
         id="path12"
         style="fill:#ffffff" />
    </g>
  </g>
</svg>
