<?xml version="1.0" encoding="UTF-8" standalone="no"?>
<svg
   width="765.38013mm"
   height="284.08817mm"
   viewBox="0 0 765.38016 284.08816"
   version="1.1"
   id="svg8"
   inkscape:version="1.2.2 (732a01da63, 2022-12-09)"
   sodipodi:docname="logo_wm.svg"
   xmlns:inkscape="http://www.inkscape.org/namespaces/inkscape"
   xmlns:sodipodi="http://sodipodi.sourceforge.net/DTD/sodipodi-0.dtd"
   xmlns="http://www.w3.org/2000/svg"
   xmlns:svg="http://www.w3.org/2000/svg"
   xmlns:rdf="http://www.w3.org/1999/02/22-rdf-syntax-ns#"
   xmlns:cc="http://creativecommons.org/ns#"
   xmlns:dc="http://purl.org/dc/elements/1.1/">
  <defs
     id="defs2" />
  <sodipodi:namedview
     id="base"
     pagecolor="#ffffff"
     bordercolor="#666666"
     borderopacity="1.0"
     inkscape:pageopacity="0.0"
     inkscape:pageshadow="2"
     inkscape:zoom="0.1767767"
     inkscape:cx="1733.8258"
     inkscape:cy="316.78383"
     inkscape:document-units="mm"
     inkscape:current-layer="layer1"
     inkscape:document-rotation="0"
     showgrid="false"
     inkscape:window-width="1920"
     inkscape:window-height="1029"
     inkscape:window-x="-8"
     inkscape:window-y="22"
     inkscape:window-maximized="1"
     inkscape:showpageshadow="2"
     inkscape:pagecheckerboard="0"
     inkscape:deskcolor="#d1d1d1" />
  <metadata
     id="metadata5">
    <rdf:RDF>
      <cc:Work
         rdf:about="">
        <dc:format>image/svg+xml</dc:format>
        <dc:type
           rdf:resource="http://purl.org/dc/dcmitype/StillImage" />
      </cc:Work>
    </rdf:RDF>
  </metadata>
  <g
     inkscape:label="Layer 1"
     inkscape:groupmode="layer"
     id="layer1"
     transform="translate(-65.209247,-6.5534427)">
    <g
       aria-label="Re"
       transform="matrix(1.2433357,0,0,1.2665668,-74.702592,50.08934)"
       id="text75"
       style="font-weight:bold;font-size:198.438px;line-height:1.25;font-family:'TradeGothic LT CondEighteen';-inkscape-font-specification:'TradeGothic LT CondEighteen, Bold';letter-spacing:-3.31125px;white-space:pre;fill:#1a1a1a;stroke-width:0.264583">
      <path
         d="m 320.88735,69.623542 h 8.73127 q 4.96095,0 8.3344,-0.99219 3.57188,-0.99219 5.7547,-3.571884 2.18282,-2.579694 3.17501,-6.746892 0.99219,-4.365636 0.99219,-10.715652 0,-12.700032 -4.1672,-17.264106 -4.1672,-4.762513 -14.0891,-4.762513 h -8.73127 z m 0,78.978328 H 296.28104 V 5.3296291 h 34.52821 q 20.63755,0 31.15477,9.7234619 10.51721,9.723462 10.51721,32.543833 0,8.731272 -1.5875,14.88285 -1.38907,6.151578 -3.96876,10.517214 -2.38126,4.167198 -5.55627,6.746892 -2.97657,2.579694 -6.15158,3.968761 l 20.83599,64.889229 H 351.04993 L 333.58738,89.268905 q -2.38126,0.396876 -5.95314,0.595314 -3.37345,0 -6.74689,0 z"
         style="fill:#d40000"
         id="path187" />
      <path
         d="m 436.6389,81.132946 v -5.556264 q 0,-9.326586 -3.17501,-13.295346 -3.175,-4.167198 -9.12814,-4.167198 -5.95314,0 -9.12815,4.167198 -3.17501,3.96876 -3.17501,13.295346 v 5.556264 z m 22.22506,18.256297 h -46.83137 v 15.478167 q 0,9.32658 3.17501,13.49378 3.17501,3.96876 9.12815,3.96876 5.95314,0 9.12814,-3.96876 3.17501,-4.1672 3.17501,-13.49378 v -2.38126 h 22.22506 q -0.19844,8.53284 -2.18282,15.47817 -1.78594,6.94533 -5.95314,12.10471 -4.1672,4.96095 -10.71565,7.73909 -6.35002,2.77813 -15.6766,2.77813 -9.52503,0 -16.07348,-2.77813 -6.54846,-2.97657 -10.71565,-8.13596 -4.1672,-5.35783 -5.95314,-12.70003 -1.78595,-7.34221 -1.78595,-16.07348 V 79.545442 q 0,-8.731272 1.78595,-16.073478 1.78594,-7.342206 5.95314,-12.501594 4.16719,-5.357826 10.71565,-8.135958 6.54845,-2.97657 16.07348,-2.97657 9.52502,0 16.07347,2.97657 6.54846,2.778132 10.71566,8.135958 4.16719,5.159388 5.95314,12.501594 1.78594,7.342206 1.78594,16.073478 z"
         style="fill:#d40000"
         id="path189" />
    </g>
    <g
       id="g44"
       transform="matrix(2.340378,0,0,2.340378,37.900963,1.0023799)"
       style="fill:#d40000">
      <path
         d="M 117.49165,63.064655 11.668322,2.3718659 V 123.75745 Z"
         fill="#ffffff"
         id="path32"
         style="fill:#d40000;stroke-width:2.59371" />
    </g>
    <g
       style="fill:#000000"
       id="g24"
       transform="matrix(5.6393794,-3.3248699,3.3248699,5.6393794,35.065023,120.93061)">
      <path
         d="m 13.5,5.5 c 1.1,0 2,-0.9 2,-2 0,-1.1 -0.9,-2 -2,-2 -1.1,0 -2,0.9 -2,2 0,1.1 0.9,2 2,2 z m 4,5.28 C 16.27,10.41 15.28,9.61 14.7,8.6 L 13.7,7 C 13.29,6.35 12.59,6 11.86,6 11.08,6 10.27,6.5 10.08,7.44 9.89,8.38 7,23 7,23 h 2.1 l 1.8,-8 2.1,2 v 6 h 2 v -7.5 l -2.1,-2 0.6,-3 c 1,1.15 2.41,2.01 4,2.34 V 23 H 19 V 9 H 17.5 Z M 7.43,13.13 5.31,12.72 C 4.77,12.61 4.41,12.09 4.52,11.55 L 5.28,7.62 C 5.49,6.54 6.54,5.83 7.62,6.04 l 1.16,0.23 z"
         id="path12"
         style="fill:#ffffff" />
    </g>
    <g
       aria-label="hike"
       transform="scale(0.94782642,1.0550455)"
       id="text55"
       style="font-weight:bold;font-size:238.222px;line-height:1.25;font-family:'TradeGothic LT CondEighteen';-inkscape-font-specification:'TradeGothic LT CondEighteen, Bold';letter-spacing:-3.97511px;white-space:pre;fill:#1a1a1a;stroke-width:0.317628">
      <path
         d="M 542.3364,225.87038 V 53.874092 h 26.68086 v 55.743948 q 3.57333,-3.09689 6.67022,-5.71733 3.33511,-2.85866 6.67022,-4.526215 3.3351,-1.905776 7.6231,-2.858664 4.288,-1.19111 10.00532,-1.19111 10.71999,0 16.43732,7.146659 5.95555,7.14666 5.95555,19.77243 V 225.87038 H 595.69813 V 126.5318 q 0,-4.76444 -2.62044,-6.90844 -2.62045,-2.38222 -6.90844,-2.38222 -4.288,0 -8.33777,2.38222 -4.04978,2.38222 -8.81422,5.71733 v 100.52969 z"
         id="path178" />
      <path
         d="M 644.37014,78.172737 V 53.874092 H 671.051 v 24.298645 z m 0,147.697643 V 97.706941 H 671.051 V 225.87038 Z"
         id="path180" />
      <path
         d="m 750.2154,138.20468 30.96886,87.6657 H 754.26517 L 732.82519,162.2651 h -0.47644 l -12.62577,18.81954 v 44.78574 H 693.04212 V 53.874092 h 26.68086 v 89.095028 h 0.47645 l 29.3013,-45.262179 h 28.58664 z"
         id="path182" />
      <path
         d="m 849.62871,144.8749 v -6.67022 q 0,-11.19643 -3.81155,-15.96087 -3.81155,-5.00267 -10.95821,-5.00267 -7.14666,0 -10.95821,5.00267 -3.81156,4.76444 -3.81156,15.96087 v 6.67022 z m 26.68087,21.91642 h -56.2204 v 18.58132 q 0,11.19643 3.81156,16.19909 3.81155,4.76444 10.95821,4.76444 7.14666,0 10.95821,-4.76444 3.81155,-5.00266 3.81155,-16.19909 v -2.85867 h 26.68087 q -0.23823,10.24355 -2.62045,18.58132 -2.14399,8.33777 -7.14666,14.53154 -5.00266,5.95555 -12.86398,9.29066 -7.62311,3.33511 -18.81954,3.33511 -11.43466,0 -19.29598,-3.33511 -7.86133,-3.57333 -12.86399,-9.7671 -5.00266,-6.432 -7.14666,-15.24621 -2.144,-8.81422 -2.144,-19.29598 v -37.63908 q 0,-10.48177 2.144,-19.29598 2.144,-8.81422 7.14666,-15.00799 5.00266,-6.43199 12.86399,-9.767099 7.86132,-3.57333 19.29598,-3.57333 11.43465,0 19.29598,3.57333 7.86133,3.335109 12.86399,9.767099 5.00266,6.19377 7.14666,15.00799 2.144,8.81421 2.144,19.29598 z"
         id="path184" />
    </g>
  </g>
</svg>
